# xmcd
#
# Track frame offsets:
#	150
#	9894
#	18338
#	25474
#	44629
#
# Disc length: 818 seconds
#
# Revision: 0
# Processed by: cddbd v1.5.2PL0 Copyright (c) Steve Scherf et al.
# Submitted via: dBpowerAMP V4.0
#
DISCID=33033005
DTITLE=The Rebel - KUFR
DYEAR=2008
DGENRE=Country/Punk
TTITLE0=Unproactive Beetle
TTITLE1=Sir Geoffrey
TTITLE2=The Tamil Support Foundation
TTITLE3=Honour Killings, Corrective Rape, Clitorectomy
TTITLE4=The Bark Of Munt Jac
EXTD=
EXTT0=
EXTT1=
EXTT2=
EXTT3=
EXTT4=
PLAYORDER=
